<?xml version="1.0" encoding="utf-8"?>
<!-- Generator: Adobe Illustrator 27.8.1, SVG Export Plug-In . SVG Version: 6.00 Build 0)  -->
<svg version="1.1" id="图层_1" xmlns="http://www.w3.org/2000/svg" xmlns:xlink="http://www.w3.org/1999/xlink" x="0px" y="0px"
	 viewBox="0 0 200 200" style="enable-background:new 0 0 200 200;" xml:space="preserve">
<style type="text/css">
	.st0{fill-rule:evenodd;clip-rule:evenodd;fill:#FFF2DB;}
	.st1{fill-rule:evenodd;clip-rule:evenodd;fill:#565656;}
	.st2{fill-rule:evenodd;clip-rule:evenodd;fill:#DE381F;}
	.st3{fill:#05244D;}
	.st4{fill-rule:evenodd;clip-rule:evenodd;fill:#EB6E38;}
	.st5{fill-rule:evenodd;clip-rule:evenodd;fill:#F7A369;}
	.st6{fill-rule:evenodd;clip-rule:evenodd;fill:#EDD1A6;}
	.st7{fill-rule:evenodd;clip-rule:evenodd;fill:#26828F;}
	.st8{fill-rule:evenodd;clip-rule:evenodd;fill:#1A698A;}
	.st9{fill-rule:evenodd;clip-rule:evenodd;fill:#05244D;}
	.st10{fill-rule:evenodd;clip-rule:evenodd;fill:#D18711;}
</style>
<g>
	<path class="st0" d="M102.24,187.7c0,0-22.29-1.55-34.73-9.29c-12.44-7.75-19.28-13.24-19.28-13.24l-2.91-71.22l46.76-8.83
		c0,0,65.22,0.82,72.67,8.58s-5.55,52.96-2.15,55.72c3.4,2.76-13.92,23.02-13.92,23.02s-15.54,8.2-27.62,11.8
		C108.99,187.82,102.24,187.7,102.24,187.7L102.24,187.7z"/>
	<path class="st1" d="M101.63,114.26c0,0-10.37-0.57-16.41,4.39c-6.04,4.96-5.17,7.84-5.82,11.94c-0.65,4.1,0.93,6.76-4.6,7.62
		c-5.54,0.86-30.47,7.69-30.2,18.23s-7.35-4.27-7.35-4.27l-5.17-14.1l13.52-20.14c0,0,0.86-7.34,8.78-14.68
		c7.91-7.34,12.37-8.63,12.37-8.63s-5.54-9.25-11.32-12.95s-7.16-4.17-7.16-4.17l8.12-11.01L74.5,84.77l2.95,4.03l24.18,0.29
		l24.19-0.29l2.95-4.03l18.12-18.27l8.12,11.01c0,0-1.37,0.47-7.16,4.17c-5.79,3.7-11.32,12.95-11.32,12.95s4.46,1.29,12.37,8.63
		c7.91,7.34,8.78,14.68,8.78,14.68l13.52,20.14l-5.17,14.1c0,0-7.62,14.81-7.35,4.27c0.28-10.54-24.66-17.37-30.2-18.23
		c-5.54-0.86-3.96-3.52-4.6-7.62c-0.65-4.1,0.21-6.98-5.82-11.94C112,113.68,101.63,114.26,101.63,114.26L101.63,114.26z
		 M122.82,101.1c-4.78,0-8.66,1.96-8.66,4.39s3.88,4.39,8.66,4.39s8.66-1.96,8.66-4.39S127.61,101.1,122.82,101.1L122.82,101.1z
		 M80.42,101.1c4.78,0,8.66,1.96,8.66,4.39s-3.88,4.39-8.66,4.39c-4.78,0-8.66-1.96-8.66-4.39S75.64,101.1,80.42,101.1L80.42,101.1z
		"/>
	<path class="st2" d="M92.76,155.54c0.03,0.84,0.34,3.15,2.66,6.49c2.74,3.92,5.73,3.8,6.14,3.76c0.03,0,0.06,0,0.11,0
		c0.42,0.04,3.41,0.16,6.15-3.76c2.31-3.32,2.63-5.63,2.66-6.47c0.01-0.21-0.1-0.4-0.29-0.51l-5.15-2.8c-0.01,0-0.02-0.01-0.03-0.02
		l-0.45-0.3c-0.25-0.16-0.58-0.1-0.75,0.15c-0.74,1.05-1.28,2.84-1.63,4.41c-0.05,0.25-0.28,0.43-0.54,0.43s-0.49-0.18-0.54-0.43
		c-0.37-1.65-0.93-3.55-1.75-4.56c-0.17-0.22-0.48-0.28-0.71-0.14l-5.59,3.26C92.86,155.15,92.75,155.33,92.76,155.54L92.76,155.54z
		"/>
	<path class="st3" d="M101.86,91.59L101.86,91.59h-0.06h-0.01h-0.01h-0.06l0,0h-0.02l0,0h-0.01h-0.02h-0.02l0,0h-0.06h-0.01h-0.04
		h-0.02h-0.01h-0.03h-0.05h-0.01h-0.01l0,0c-0.23-0.01-1.85-0.11-4.14-0.08c-2.33,0.02-5.4,0.17-8.53,0.64
		c-6.38,0.95-8.79,1.82-8.85,1.85h-0.01l0,0c-0.68,0.24-1.4,0.24-2.05,0.05c-0.64-0.19-1.21-0.56-1.63-1.08l-0.01-0.01l0,0
		l-0.06-0.07c-0.13-0.16-12.1-15.81-17.99-20.77c-0.19-0.16-0.41-0.29-0.64-0.35s-0.47-0.08-0.73-0.05s-0.5,0.11-0.7,0.22
		s-0.38,0.28-0.54,0.49c-0.67,0.89-1.4,2.05-2.16,3.38l0,0c-0.84,1.45-1.71,3.11-2.57,4.86c-1.41,2.86-2.77,6.01-3.96,9.1
		c-1.16,3.02-2.12,5.95-2.77,8.45c-0.38,1.47-0.65,2.75-0.78,3.73c-0.12,0.83-0.14,1.4-0.03,1.63c2,4.89,6.69,9.78,6.95,10.03l0,0
		l0,0l0.01,0.01c0.58,0.6,0.88,1.37,0.92,2.14c0.03,0.78-0.21,1.58-0.72,2.22l0,0l-0.04,0.05L35.74,137.5
		c-0.2,0.27-0.32,0.55-0.35,0.85c-0.04,0.3,0,0.6,0.13,0.91c1.25,3.07,3.82,8.6,8.14,14.72c2.86,4.04,6.5,8.34,11.04,12.37
		l0.07,0.05l0,0l0.08,0.06h0.01l0.06,0.05l0.02,0.01l0.06,0.05l0.01,0.01c0.04,0.04,0.11,0.08,0.17,0.15l0,0
		c0.05,0.05,0.11,0.11,0.16,0.16l0.06,0.06l0.07,0.06l0,0c5.17,4.45,11.48,8.54,19.11,11.5c7.62,2.97,16.58,4.82,27.05,4.82
		s19.43-1.86,27.05-4.82c7.62-2.97,13.93-7.04,19.11-11.49l0,0l0.06-0.06l0.06-0.06c0.05-0.05,0.11-0.11,0.16-0.16l0,0
		c0.06-0.06,0.12-0.11,0.17-0.15l0.01-0.01l0.06-0.05l0.01-0.01l0.06-0.04l0.01-0.01l0.07-0.05l0.07-0.06
		c5.7-5.07,9.99-10.56,13.1-15.44c3.11-4.87,5.05-9.11,6.09-11.66c0.13-0.31,0.17-0.62,0.13-0.91c-0.04-0.3-0.16-0.58-0.35-0.85
		l-14.61-19.49l-0.04-0.05l0,0c-0.52-0.64-0.76-1.43-0.73-2.22c0.03-0.77,0.34-1.54,0.92-2.14l0.01-0.01l0,0l0,0
		c0.24-0.25,4.94-5.14,6.95-10.03c0.1-0.23,0.07-0.81-0.03-1.63c-0.14-0.99-0.4-2.26-0.78-3.73c-0.65-2.51-1.61-5.44-2.77-8.45
		c-1.18-3.09-2.54-6.23-3.96-9.1c-0.86-1.75-1.73-3.4-2.57-4.86l0,0c-0.76-1.34-1.51-2.49-2.16-3.38c-0.16-0.21-0.34-0.37-0.54-0.49
		c-0.2-0.12-0.43-0.19-0.7-0.22c-0.25-0.03-0.5-0.01-0.73,0.05c-0.23,0.06-0.45,0.19-0.64,0.35c-5.91,4.96-17.88,20.61-17.99,20.77
		l-0.06,0.07l0,0v0.01c-0.42,0.52-1,0.9-1.63,1.08c-0.65,0.19-1.36,0.19-2.05-0.05l0,0h-0.01c-0.06-0.02-2.47-0.89-8.85-1.84
		c-3.12-0.47-6.19-0.6-8.53-0.64C103.67,91.48,102.05,91.58,101.86,91.59L101.86,91.59L101.86,91.59z M152.63,177.83
		c-0.62-0.88-1.19-1.68-1.71-2.4c-0.15-0.2-0.32-0.36-0.52-0.48c-0.19-0.12-0.42-0.2-0.67-0.23c-0.25-0.03-0.49-0.02-0.71,0.03l0,0
		c-0.22,0.05-0.43,0.16-0.64,0.32c-5.55,4.2-12.12,7.93-19.87,10.61S111.86,190,101.64,190s-19.13-1.63-26.88-4.32
		c-7.75-2.68-14.34-6.42-19.87-10.61c-0.2-0.16-0.41-0.27-0.64-0.32l0,0c-0.22-0.05-0.47-0.06-0.71-0.03
		c-0.25,0.04-0.48,0.12-0.67,0.23c-0.2,0.12-0.37,0.29-0.52,0.48c-0.47,0.64-0.96,1.34-1.51,2.1l-4.45-5.15
		c0.39-0.55,0.77-1.07,1.12-1.54c0.27-0.36,0.38-0.8,0.35-1.21c-0.03-0.41-0.21-0.82-0.53-1.13c-13.95-13.84-18.93-29.35-19.03-29.7
		v-0.01l0,0l-0.2-0.65l0.06-0.02c-0.03-0.3-0.02-0.59,0.02-0.89l0,0c0.08-0.51,0.29-1,0.61-1.43l13.93-18.57
		c0.25-0.34,0.37-0.72,0.37-1.11c-0.01-0.38-0.14-0.77-0.4-1.09c-1.03-1.28-2.21-2.87-3.29-4.62c-0.85-1.37-1.63-2.83-2.25-4.32
		c-0.41-1-0.54-2.33-0.45-3.91c0.11-1.62,0.45-3.53,0.98-5.6c0.71-2.76,1.75-5.91,2.97-9.12c1.25-3.27,2.7-6.63,4.21-9.7
		c1.66-3.39,3.45-6.47,5.16-8.8c1.61-2.18,3.2-3.73,4.64-4.33c0.51-0.21,1.02-0.34,1.52-0.38c0.5-0.04,1.01,0,1.51,0.13
		c2.48,0.64,6.7,4.6,10.89,9.16c4.14,4.51,8.28,9.61,10.69,12.64c0.22,0.29,0.51,0.49,0.81,0.59c0.31,0.11,0.66,0.13,1.01,0.04
		c0.8-0.18,1.75-0.38,2.86-0.59c1.12-0.21,2.4-0.42,3.81-0.64c3.11-0.47,6.2-0.64,8.69-0.68c2.49-0.05,4.37,0.03,5.08,0.06h0.1h0.1
		c0.7-0.03,2.59-0.12,5.08-0.06c2.49,0.04,5.59,0.22,8.69,0.68c1.41,0.21,2.68,0.42,3.81,0.64c1.11,0.21,2.07,0.41,2.86,0.59
		c0.35,0.08,0.7,0.06,1.01-0.04c0.31-0.11,0.58-0.31,0.81-0.59c2.41-3.03,6.55-8.13,10.69-12.64c4.19-4.57,8.41-8.53,10.89-9.16
		c0.51-0.13,1.01-0.17,1.51-0.13c0.51,0.04,1.01,0.17,1.52,0.38c1.44,0.59,3.03,2.14,4.63,4.33c1.72,2.33,3.5,5.42,5.16,8.8
		c1.51,3.08,2.97,6.43,4.21,9.7c1.23,3.21,2.27,6.37,2.97,9.12c0.53,2.08,0.88,3.99,0.98,5.6c0.1,1.58-0.03,2.92-0.45,3.91
		c-0.6,1.48-1.4,2.95-2.25,4.32c-1.08,1.75-2.26,3.34-3.29,4.62c-0.27,0.33-0.39,0.71-0.4,1.09c-0.01,0.38,0.12,0.77,0.37,1.11
		l13.92,18.57c0.33,0.43,0.53,0.93,0.62,1.43l0,0c0.05,0.3,0.06,0.59,0.03,0.89l0.06,0.02l-0.2,0.65l0,0v0.01
		c-0.11,0.34-5.08,15.85-19.03,29.7c-0.32,0.32-0.5,0.72-0.53,1.13c-0.03,0.41,0.08,0.85,0.35,1.21c0.5,0.68,1.06,1.45,1.65,2.29
		L152.63,177.83L152.63,177.83z M67.56,122.34c1.81,0,3.46,0.9,4.63,2.36c1.15,1.42,1.85,3.37,1.85,5.51s-0.71,4.1-1.85,5.51
		c-1.18,1.46-2.81,2.36-4.63,2.36c-1.81,0-3.46-0.9-4.63-2.36c-1.15-1.42-1.85-3.37-1.85-5.51s0.71-4.09,1.85-5.51
		C64.1,123.24,65.73,122.34,67.56,122.34L67.56,122.34z M131.06,124.7c1.18-1.46,2.81-2.36,4.63-2.36c1.81,0,3.46,0.9,4.63,2.36
		c1.15,1.42,1.85,3.37,1.85,5.51s-0.71,4.1-1.85,5.51c-1.18,1.46-2.81,2.36-4.63,2.36c-1.81,0-3.46-0.9-4.63-2.36
		c-1.15-1.42-1.85-3.37-1.85-5.51C129.21,128.08,129.92,126.12,131.06,124.7L131.06,124.7z M101.69,122.13h0.01
		c0.48,0.01,3.48,0.06,7.05,0.06c0.98,0,1.81,0.27,2.47,0.72c0.7,0.49,1.19,1.19,1.42,2.01c0.23,0.8,0.22,1.71-0.06,2.66
		c-0.37,1.26-1.23,2.6-2.67,3.81c-2.04,1.72-3.31,3-4.06,4.07c-0.69,1-0.92,1.83-0.92,2.74v5.69c0,0.12,0.01,0.21,0.02,0.3
		c0.01,0.08,0.04,0.18,0.07,0.29c0.18,0.53,0.52,1.27,1.03,2.13c0.41,0.7,0.94,1.45,1.57,2.19c0.89,1.05,1.97,2.05,3.24,2.71
		c1.03,0.55,2.19,0.89,3.47,0.89c0.2,0,0.39,0,0.56-0.02c0.14-0.01,0.29-0.02,0.42-0.04l0.13-0.02c0.78-0.12,1.46-0.29,2.05-0.52
		c0.62-0.24,1.12-0.53,1.54-0.87c0.39-0.32,0.71-0.67,0.98-1.05c0.29-0.42,0.5-0.88,0.65-1.34c0.14-0.43,0.22-0.89,0.27-1.34
		c0.04-0.49,0.02-0.95-0.04-1.39c-0.04-0.31-0.11-0.57-0.17-0.77c-0.05-0.17-0.11-0.28-0.15-0.34c-0.57-0.71-0.8-1.59-0.7-2.43
		c0.1-0.84,0.51-1.64,1.22-2.22l0,0c0.71-0.57,1.59-0.8,2.43-0.7c0.84,0.1,1.64,0.51,2.22,1.22c0.42,0.53,0.8,1.19,1.09,1.93
		c0.29,0.72,0.5,1.51,0.63,2.34l0,0c0.13,0.89,0.17,1.87,0.08,2.86c-0.07,0.91-0.25,1.87-0.56,2.82c-0.34,1.06-0.83,2.1-1.48,3.07
		c-0.6,0.89-1.37,1.73-2.3,2.47c-0.88,0.7-1.9,1.31-3.08,1.8c-1.09,0.45-2.31,0.78-3.67,0.99l-0.65,0.1v-0.01
		c-0.14,0.01-0.28,0.03-0.41,0.04c-0.35,0.02-0.7,0.04-1.02,0.04c-2.26,0-4.28-0.54-6.07-1.42c-2.11-1.04-3.88-2.52-5.31-4.14
		c-0.18-0.2-0.38-0.36-0.6-0.46s-0.47-0.15-0.74-0.15c-0.28,0-0.52,0.05-0.74,0.15s-0.42,0.25-0.6,0.46c-1.43,1.6-3.2,3.1-5.31,4.14
		c-1.79,0.88-3.82,1.42-6.07,1.42c-0.32,0-0.66-0.01-1.02-0.04c-0.14-0.01-0.28-0.02-0.41-0.04v0.01l-0.65-0.1
		c-1.36-0.2-2.58-0.54-3.67-0.99c-1.18-0.48-2.19-1.09-3.08-1.8c-0.93-0.75-1.7-1.58-2.3-2.47c-0.67-0.98-1.16-2.01-1.48-3.07
		c-0.31-0.94-0.48-1.9-0.56-2.82c-0.08-1-0.04-1.97,0.08-2.86l0,0c0.12-0.83,0.34-1.62,0.63-2.34c0.3-0.74,0.67-1.4,1.09-1.93
		c0.57-0.71,1.37-1.12,2.22-1.22c0.84-0.1,1.72,0.14,2.43,0.7l0,0c0.71,0.57,1.12,1.37,1.22,2.22c0.1,0.84-0.13,1.72-0.7,2.43
		c-0.04,0.06-0.1,0.17-0.15,0.34c-0.06,0.2-0.12,0.47-0.17,0.77c-0.06,0.43-0.08,0.9-0.04,1.39c0.03,0.45,0.12,0.9,0.25,1.34
		c0.15,0.46,0.36,0.91,0.65,1.34c0.27,0.38,0.58,0.74,0.98,1.05c0.41,0.33,0.92,0.63,1.54,0.87c0.58,0.23,1.26,0.4,2.04,0.52
		l0.12,0.02c0.14,0.02,0.29,0.03,0.43,0.04c0.18,0.01,0.36,0.02,0.56,0.02c1.28,0,2.44-0.35,3.47-0.89
		c1.27-0.68,2.36-1.66,3.24-2.71c0.63-0.74,1.15-1.5,1.57-2.19c0.51-0.85,0.86-1.6,1.03-2.13c0.03-0.11,0.06-0.19,0.07-0.29
		c0.01-0.08,0.02-0.18,0.02-0.3v-5.69c0-0.9-0.23-1.73-0.92-2.74c-0.75-1.08-2.01-2.35-4.06-4.07c-1.44-1.21-2.3-2.54-2.67-3.81
		c-0.28-0.94-0.29-1.87-0.05-2.66c0.23-0.83,0.73-1.53,1.42-2.01c0.66-0.46,1.5-0.72,2.47-0.72c3.57,0,6.57-0.06,7.05-0.06h0.01
		h0.01h0.11H101.69L101.69,122.13z"/>
	<path class="st0" d="M101.67,72.72c0,0-53.3,4.72-59.32,11.59c-6.01,6.86-15.08,14.79-11.3,32.9s6.66,31.61,7.96,40.32
		c1.3,8.72,0.95,19.37,0.95,19.37s-17.21-18.22-21.08-31.8c-3.86-13.59-3.44-40.77-0.86-64.23s25.46-48.64,43.35-55.65
		c17.88-7.01,36.48-7.87,36.48-7.87h7.62c0,0,18.6,0.86,36.48,7.87s40.77,32.18,43.35,55.65c2.58,23.47,3,50.64-0.86,64.23
		c-3.86,13.59-21.08,31.8-21.08,31.8s-0.35-10.67,0.95-19.37c1.3-8.72,4.19-22.21,7.96-40.32c3.77-18.11-5.29-26.03-11.3-32.9
		c-6.01-6.87-58.59-11.53-58.59-11.53L101.67,72.72L101.67,72.72z"/>
	<path class="st2" d="M79.99,19.83v55.33c-4.7,0.61-9.69,1.35-14.46,2.16v-53.6C70.55,22,75.51,20.75,79.99,19.83L79.99,19.83z"/>
	<path class="st4" d="M94.45,17.63v55.82c-3.87,0.41-8.96,0.99-14.46,1.72V19.83C86.07,18.56,91.26,17.93,94.45,17.63L94.45,17.63z"
		/>
	<path class="st5" d="M108.91,17.63v55.81c-4-0.42-6.51-0.65-6.51-0.65l-0.72-0.06c0,0-2.82,0.25-7.22,0.72V17.63
		c2.16-0.21,3.41-0.27,3.41-0.27h7.62C105.49,17.35,106.75,17.42,108.91,17.63L108.91,17.63z"/>
	<path class="st6" d="M123.38,19.83v55.31c-5.56-0.73-10.68-1.3-14.46-1.71v-55.8C112.1,17.94,117.29,18.56,123.38,19.83
		L123.38,19.83z"/>
	<path class="st7" d="M137.84,23.72V77.3c-4.78-0.83-9.78-1.55-14.46-2.16V19.83C127.85,20.75,132.81,22.01,137.84,23.72
		L137.84,23.72z"/>
	<path class="st2" d="M101.68,70.72c-1.44,0.03-37.37,0.75-54.45,9.02c-8.21,3.98-13.18,9.88-15.82,16.92
		c-2.73,7.24-3.05,15.79-1.94,24.77c0.67,5.35,2.01,11.59,3.52,18.51c2.28,10.53,4.91,22.62,6.12,36c-1.38-1.52-4.22-4.73-7.38-8.78
		c-1.33-9.41-3.21-18.09-4.9-25.88c-1.54-7.08-2.92-13.46-3.62-19.09c-1.23-9.89-0.82-19.45,2.31-27.76
		c3.19-8.51,9.16-15.63,18.98-20.38c18.64-9.02,57.03-9.64,57.14-9.64h0.1c0.11,0,38.5,0.61,57.14,9.64
		c9.82,4.75,15.79,11.87,18.98,20.38c3.12,8.31,3.54,17.87,2.31,27.76c-0.7,5.62-2.08,11.99-3.62,19.09
		c-1.69,7.79-3.57,16.48-4.9,25.88c-3.16,4.05-6,7.26-7.38,8.78c1.21-13.38,3.83-25.47,6.11-36c1.51-6.92,2.85-13.15,3.52-18.51
		c1.11-8.98,0.78-17.53-1.94-24.77c-2.65-7.04-7.61-12.95-15.82-16.92C139.05,71.47,103.12,70.75,101.68,70.72L101.68,70.72z"/>
	<path class="st8" d="M39.8,178.57c0,0,13.16,0.86,14.88-6.15s4.29-20.74-0.71-31.76s-14.88-26.75-14.88-26.75
		s19.31-11.73,24.89-18.45c5.58-6.72,21.75-2,21.75-2l15.97-1.57l14.82,1c0,0,17.3-4.15,22.89,2.58
		c5.58,6.72,24.89,18.45,24.89,18.45s-9.87,15.74-14.88,26.75c-5,11.02-2.43,24.75-0.71,31.76s14.88,6.15,14.88,6.15
		s-1-7.73-0.42-13.73c0.57-6.01,7.16-35.33,7.72-46.21c0.57-10.87-2-26.32-14.17-34.76c-12.13-8.42-54.82-10.4-55.01-10.41l0,0l0,0
		l0,0l0,0c-0.19,0.01-42.88,1.99-55.01,10.41c-12.16,8.44-14.74,23.89-14.17,34.76c0.57,10.87,7.15,40.2,7.72,46.21
		C40.8,170.85,39.8,178.57,39.8,178.57L39.8,178.57z"/>
	<path class="st9" d="M145.08,172.62c3.54,10.47,16.45,12.73,24.03,5.14c29.95-29.95,27.6-99.09,3.99-131.38
		c-12.44-17-31.59-28.39-58.57-31.11c-4.17-0.42-8.44-0.64-12.84-0.64S93,14.85,88.84,15.28c-26.99,2.71-46.14,14.1-58.57,31.11
		C5.52,80.24,5,147.42,34.86,178.4c7.51,7.79,20.24,3.63,23.43-5.78c0,0,1.11-3.79,1.25-7.01c0.01-0.23,0.02-0.43,0.04-0.63
		c0.5-8.1-0.72-19.62-4.01-29.98c-2.67-8.43-6.75-16.19-12.45-21.05c3.72-1.56,6.81-3.68,9.73-6.09h-0.03
		c7.78-6.22,15.58-9.51,23.56-11.23c8.09-1.75,16.5-1.92,25.3-1.92c8.79,0,17.21,0.17,25.3,1.92c7.97,1.73,15.78,5,23.56,11.23
		h-0.03c2.93,2.4,6.01,4.53,9.73,6.09c-5.69,4.85-9.78,12.61-12.45,21.05c-3.37,10.62-4.57,22.47-3.97,30.6
		C143.83,165.61,143.97,168,145.08,172.62L145.08,172.62z M48.91,102.98c8.66-6.93,17.32-10.58,26.15-12.49
		c8.72-1.89,17.5-2.07,26.63-2.07c9.14,0,17.91,0.18,26.63,2.07c8.83,1.91,17.49,5.56,26.15,12.49l0,0
		c3.79,3.08,7.85,5.6,13.42,6.71l0.15-0.04c0.17-0.05,0.35-0.1,0.52-0.15c-0.21-4.23-0.89-7.91-2.1-11.1
		c-2.41-6.38-7.07-10.97-14.57-14.31c-6.46-2.88-15.85-4.65-24.77-5.75l0,0h-0.01c-12.87-1.57-24.76-1.72-25.43-1.72h-0.01
		c-0.67,0.01-12.55,0.15-25.43,1.72h-0.01l0,0c-8.92,1.09-18.31,2.86-24.77,5.75c-7.5,3.35-12.16,7.93-14.57,14.31
		c-1.21,3.2-1.88,6.88-2.1,11.1c0.17,0.04,0.35,0.1,0.52,0.15l0.15,0.04C41.06,108.58,45.11,106.05,48.91,102.98L48.91,102.98
		L48.91,102.98z M101.68,46.05c2.13,0,3.86,1.73,3.86,3.86s-1.73,3.86-3.86,3.86c-2.13,0-3.86-1.73-3.86-3.86
		S99.55,46.05,101.68,46.05L101.68,46.05z M157.93,61.93c-2.13,0-3.86,1.73-3.86,3.86s1.73,3.86,3.86,3.86
		c2.13,0,3.86-1.73,3.86-3.86C161.8,63.66,160.07,61.93,157.93,61.93L157.93,61.93z M45.43,61.93c2.13,0,3.86,1.73,3.86,3.86
		s-1.73,3.86-3.86,3.86c-2.13,0-3.86-1.73-3.86-3.86C41.57,63.66,43.3,61.93,45.43,61.93L45.43,61.93z M168.45,116.19l0.1,0.01
		c-0.14,2.86-0.42,5.93-0.86,9.2c-1.06,8.09-2.89,15.34-4.58,22.06c-2.58,10.21-4.85,19.22-3.91,28.74
		c-2.94-0.35-6.96-1.63-8.24-5.94c-0.3-0.99-0.53-2.22-0.69-3.65c-0.84-7.38,0.2-19.13,3.56-29.7
		C156.82,127.45,161.62,119.06,168.45,116.19L168.45,116.19z M34.91,116.19l-0.1,0.01c0.14,2.86,0.42,5.93,0.86,9.2
		c1.06,8.09,2.89,15.34,4.58,22.06c2.58,10.21,4.85,19.22,3.91,28.74c2.94-0.35,6.96-1.63,8.24-5.94c0.3-0.99,0.53-2.22,0.69-3.65
		c0.84-7.38-0.2-19.13-3.56-29.7C46.54,127.45,41.74,119.06,34.91,116.19L34.91,116.19z M101.68,20.97c4.32,0,8.4,0.2,12.23,0.58
		c25.02,2.52,42.7,12.98,54.11,28.57c22.34,30.56,23.69,93.28-2.7,122.5c-0.15-7.56,1.77-15.15,3.91-23.62
		c1.73-6.83,3.58-14.21,4.71-22.78c1.64-12.53,1.35-22.31-1.57-30.05c-3.03-8.06-8.77-13.76-17.9-17.85
		c-17.22-7.69-52.65-8.01-52.75-8.01h-0.05c-0.11,0-35.53,0.32-52.75,8.01c-9.13,4.07-14.86,9.79-17.9,17.85
		c-5.73,15.19-0.77,37.32,3.14,52.83c2.14,8.47,4.05,16.06,3.9,23.62c-26.25-29.07-25.3-91.59-2.7-122.5
		c11.4-15.59,29.09-26.04,54.11-28.57C93.28,21.17,97.37,20.97,101.68,20.97L101.68,20.97z"/>
	<ellipse class="st10" cx="80.42" cy="105.48" rx="8.65" ry="5.15"/>
	<ellipse class="st10" cx="122.82" cy="105.48" rx="8.65" ry="5.15"/>
</g>
</svg>
